<svg id="mermaid-1568087873777" width="100%" xmlns="http://www.w3.org/2000/svg" height="100%" viewBox="0 0 1384 1156"><style>#mermaid-1568087873777 .label{font-family:trebuchet ms,verdana,arial;color:#333}#mermaid-1568087873777 .node circle,#mermaid-1568087873777 .node ellipse,#mermaid-1568087873777 .node polygon,#mermaid-1568087873777 .node rect{fill:#ececff;stroke:#9370db;stroke-width:1px}#mermaid-1568087873777 .node.clickable{cursor:pointer}#mermaid-1568087873777 .arrowheadPath{fill:#333}#mermaid-1568087873777 .edgePath .path{stroke:#333;stroke-width:1.5px}#mermaid-1568087873777 .edgeLabel{background-color:#e8e8e8}#mermaid-1568087873777 .cluster rect{fill:#ffffde!important;stroke:#aa3!important;stroke-width:1px!important}#mermaid-1568087873777 .cluster text{fill:#333}#mermaid-1568087873777 div.mermaidTooltip{position:absolute;text-align:center;max-width:200px;padding:2px;font-family:trebuchet ms,verdana,arial;font-size:12px;background:#ffffde;border:1px solid #aa3;border-radius:2px;pointer-events:none;z-index:100}#mermaid-1568087873777 .actor{stroke:#ccf;fill:#ececff}#mermaid-1568087873777 text.actor{fill:#000;stroke:none}#mermaid-1568087873777 .actor-line{stroke:grey}#mermaid-1568087873777 .messageLine0{marker-end:"url(#arrowhead)"}#mermaid-1568087873777 .messageLine0,#mermaid-1568087873777 .messageLine1{stroke-width:1.5;stroke-dasharray:"2 2";stroke:#333}#mermaid-1568087873777 #arrowhead{fill:#333}#mermaid-1568087873777 #crosshead path{fill:#333!important;stroke:#333!important}#mermaid-1568087873777 .messageText{fill:#333;stroke:none}#mermaid-1568087873777 .labelBox{stroke:#ccf;fill:#ececff}#mermaid-1568087873777 .labelText,#mermaid-1568087873777 .loopText{fill:#000;stroke:none}#mermaid-1568087873777 .loopLine{stroke-width:2;stroke-dasharray:"2 2";marker-end:"url(#arrowhead)";stroke:#ccf}#mermaid-1568087873777 .note{stroke:#aa3;fill:#fff5ad}#mermaid-1568087873777 .noteText{fill:#000;stroke:none;font-family:trebuchet ms,verdana,arial;font-size:14px}#mermaid-1568087873777 .section{stroke:none;opacity:.2}#mermaid-1568087873777 .section0{fill:rgba(102,102,255,.49)}#mermaid-1568087873777 .section2{fill:#fff400}#mermaid-1568087873777 .section1,#mermaid-1568087873777 .section3{fill:#fff;opacity:.2}#mermaid-1568087873777 .sectionTitle0,#mermaid-1568087873777 .sectionTitle1,#mermaid-1568087873777 .sectionTitle2,#mermaid-1568087873777 .sectionTitle3{fill:#333}#mermaid-1568087873777 .sectionTitle{text-anchor:start;font-size:11px;text-height:14px}#mermaid-1568087873777 .grid .tick{stroke:#d3d3d3;opacity:.3;shape-rendering:crispEdges}#mermaid-1568087873777 .grid path{stroke-width:0}#mermaid-1568087873777 .today{fill:none;stroke:red;stroke-width:2px}#mermaid-1568087873777 .task{stroke-width:2}#mermaid-1568087873777 .taskText{text-anchor:middle;font-size:11px}#mermaid-1568087873777 .taskTextOutsideRight{fill:#000;text-anchor:start;font-size:11px}#mermaid-1568087873777 .taskTextOutsideLeft{fill:#000;text-anchor:end;font-size:11px}#mermaid-1568087873777 .taskText0,#mermaid-1568087873777 .taskText1,#mermaid-1568087873777 .taskText2,#mermaid-1568087873777 .taskText3{fill:#fff}#mermaid-1568087873777 .task0,#mermaid-1568087873777 .task1,#mermaid-1568087873777 .task2,#mermaid-1568087873777 .task3{fill:#8a90dd;stroke:#534fbc}#mermaid-1568087873777 .taskTextOutside0,#mermaid-1568087873777 .taskTextOutside1,#mermaid-1568087873777 .taskTextOutside2,#mermaid-1568087873777 .taskTextOutside3{fill:#000}#mermaid-1568087873777 .active0,#mermaid-1568087873777 .active1,#mermaid-1568087873777 .active2,#mermaid-1568087873777 .active3{fill:#bfc7ff;stroke:#534fbc}#mermaid-1568087873777 .activeText0,#mermaid-1568087873777 .activeText1,#mermaid-1568087873777 .activeText2,#mermaid-1568087873777 .activeText3{fill:#000!important}#mermaid-1568087873777 .done0,#mermaid-1568087873777 .done1,#mermaid-1568087873777 .done2,#mermaid-1568087873777 .done3{stroke:grey;fill:#d3d3d3;stroke-width:2}#mermaid-1568087873777 .doneText0,#mermaid-1568087873777 .doneText1,#mermaid-1568087873777 .doneText2,#mermaid-1568087873777 .doneText3{fill:#000!important}#mermaid-1568087873777 .crit0,#mermaid-1568087873777 .crit1,#mermaid-1568087873777 .crit2,#mermaid-1568087873777 .crit3{stroke:#f88;fill:red;stroke-width:2}#mermaid-1568087873777 .activeCrit0,#mermaid-1568087873777 .activeCrit1,#mermaid-1568087873777 .activeCrit2,#mermaid-1568087873777 .activeCrit3{stroke:#f88;fill:#bfc7ff;stroke-width:2}#mermaid-1568087873777 .doneCrit0,#mermaid-1568087873777 .doneCrit1,#mermaid-1568087873777 .doneCrit2,#mermaid-1568087873777 .doneCrit3{stroke:#f88;fill:#d3d3d3;stroke-width:2;cursor:pointer;shape-rendering:crispEdges}#mermaid-1568087873777 .activeCritText0,#mermaid-1568087873777 .activeCritText1,#mermaid-1568087873777 .activeCritText2,#mermaid-1568087873777 .activeCritText3,#mermaid-1568087873777 .doneCritText0,#mermaid-1568087873777 .doneCritText1,#mermaid-1568087873777 .doneCritText2,#mermaid-1568087873777 .doneCritText3{fill:#000!important}#mermaid-1568087873777 .titleText{text-anchor:middle;font-size:18px;fill:#000}#mermaid-1568087873777 g.classGroup text{fill:#9370db;stroke:none;font-family:trebuchet ms,verdana,arial;font-size:10px}#mermaid-1568087873777 g.classGroup rect{fill:#ececff;stroke:#9370db}#mermaid-1568087873777 g.classGroup line{stroke:#9370db;stroke-width:1}#mermaid-1568087873777 .classLabel .box{stroke:none;stroke-width:0;fill:#ececff;opacity:.5}#mermaid-1568087873777 .classLabel .label{fill:#9370db;font-size:10px}#mermaid-1568087873777 .relation{stroke:#9370db;stroke-width:1;fill:none}#mermaid-1568087873777 #compositionEnd,#mermaid-1568087873777 #compositionStart{fill:#9370db;stroke:#9370db;stroke-width:1}#mermaid-1568087873777 #aggregationEnd,#mermaid-1568087873777 #aggregationStart{fill:#ececff;stroke:#9370db;stroke-width:1}#mermaid-1568087873777 #dependencyEnd,#mermaid-1568087873777 #dependencyStart,#mermaid-1568087873777 #extensionEnd,#mermaid-1568087873777 #extensionStart{fill:#9370db;stroke:#9370db;stroke-width:1}#mermaid-1568087873777 .branch-label,#mermaid-1568087873777 .commit-id,#mermaid-1568087873777 .commit-msg{fill:#d3d3d3;color:#d3d3d3}</style><style>#mermaid-1568087873777 {
    color: rgb(0, 0, 0);
    font: normal normal 400 normal 16px / normal "Times New Roman";
  }</style><g></g><g class="grid" transform="translate(75, 1106)" fill="none" font-size="10" font-family="sans-serif" text-anchor="middle"><path class="domain" stroke="#000" d="M0.5,-1071V0.5H1234.5V-1071"></path><g class="tick" opacity="1" transform="translate(0.5,0)"><line stroke="#000" y2="-1071"></line><text fill="#000" y="3" dy="1em" stroke="none" font-size="10" style="text-anchor: middle;"> 2019-04</text></g><g class="tick" opacity="1" transform="translate(81.5,0)"><line stroke="#000" y2="-1071"></line><text fill="#000" y="3" dy="1em" stroke="none" font-size="10" style="text-anchor: middle;"> 2019-05</text></g><g class="tick" opacity="1" transform="translate(165.5,0)"><line stroke="#000" y2="-1071"></line><text fill="#000" y="3" dy="1em" stroke="none" font-size="10" style="text-anchor: middle;"> 2019-06</text></g><g class="tick" opacity="1" transform="translate(246.5,0)"><line stroke="#000" y2="-1071"></line><text fill="#000" y="3" dy="1em" stroke="none" font-size="10" style="text-anchor: middle;"> 2019-07</text></g><g class="tick" opacity="1" transform="translate(329.5,0)"><line stroke="#000" y2="-1071"></line><text fill="#000" y="3" dy="1em" stroke="none" font-size="10" style="text-anchor: middle;"> 2019-08</text></g><g class="tick" opacity="1" transform="translate(413.5,0)"><line stroke="#000" y2="-1071"></line><text fill="#000" y="3" dy="1em" stroke="none" font-size="10" style="text-anchor: middle;"> 2019-09</text></g><g class="tick" opacity="1" transform="translate(494.5,0)"><line stroke="#000" y2="-1071"></line><text fill="#000" y="3" dy="1em" stroke="none" font-size="10" style="text-anchor: middle;"> 2019-10</text></g><g class="tick" opacity="1" transform="translate(578.5,0)"><line stroke="#000" y2="-1071"></line><text fill="#000" y="3" dy="1em" stroke="none" font-size="10" style="text-anchor: middle;"> 2019-11</text></g><g class="tick" opacity="1" transform="translate(659.5,0)"><line stroke="#000" y2="-1071"></line><text fill="#000" y="3" dy="1em" stroke="none" font-size="10" style="text-anchor: middle;"> 2019-12</text></g><g class="tick" opacity="1" transform="translate(743.5,0)"><line stroke="#000" y2="-1071"></line><text fill="#000" y="3" dy="1em" stroke="none" font-size="10" style="text-anchor: middle;"> 2020-01</text></g><g class="tick" opacity="1" transform="translate(826.5,0)"><line stroke="#000" y2="-1071"></line><text fill="#000" y="3" dy="1em" stroke="none" font-size="10" style="text-anchor: middle;"> 2020-02</text></g><g class="tick" opacity="1" transform="translate(905.5,0)"><line stroke="#000" y2="-1071"></line><text fill="#000" y="3" dy="1em" stroke="none" font-size="10" style="text-anchor: middle;"> 2020-03</text></g><g class="tick" opacity="1" transform="translate(988.5,0)"><line stroke="#000" y2="-1071"></line><text fill="#000" y="3" dy="1em" stroke="none" font-size="10" style="text-anchor: middle;"> 2020-04</text></g><g class="tick" opacity="1" transform="translate(1069.5,0)"><line stroke="#000" y2="-1071"></line><text fill="#000" y="3" dy="1em" stroke="none" font-size="10" style="text-anchor: middle;"> 2020-05</text></g><g class="tick" opacity="1" transform="translate(1153.5,0)"><line stroke="#000" y2="-1071"></line><text fill="#000" y="3" dy="1em" stroke="none" font-size="10" style="text-anchor: middle;"> 2020-06</text></g><g class="tick" opacity="1" transform="translate(1234.5,0)"><line stroke="#000" y2="-1071"></line><text fill="#000" y="3" dy="1em" stroke="none" font-size="10" style="text-anchor: middle;"> 2020-07</text></g></g><g><rect x="0" y="48" width="1346.5" height="24" class="section section0"></rect><rect x="0" y="72" width="1346.5" height="24" class="section section0"></rect><rect x="0" y="96" width="1346.5" height="24" class="section section0"></rect><rect x="0" y="120" width="1346.5" height="24" class="section section0"></rect><rect x="0" y="144" width="1346.5" height="24" class="section section0"></rect><rect x="0" y="168" width="1346.5" height="24" class="section section0"></rect><rect x="0" y="192" width="1346.5" height="24" class="section section0"></rect><rect x="0" y="216" width="1346.5" height="24" class="section section1"></rect><rect x="0" y="240" width="1346.5" height="24" class="section section1"></rect><rect x="0" y="264" width="1346.5" height="24" class="section section1"></rect><rect x="0" y="288" width="1346.5" height="24" class="section section1"></rect><rect x="0" y="312" width="1346.5" height="24" class="section section1"></rect><rect x="0" y="336" width="1346.5" height="24" class="section section1"></rect><rect x="0" y="360" width="1346.5" height="24" class="section section2"></rect><rect x="0" y="384" width="1346.5" height="24" class="section section2"></rect><rect x="0" y="408" width="1346.5" height="24" class="section section2"></rect><rect x="0" y="432" width="1346.5" height="24" class="section section2"></rect><rect x="0" y="456" width="1346.5" height="24" class="section section2"></rect><rect x="0" y="480" width="1346.5" height="24" class="section section2"></rect><rect x="0" y="504" width="1346.5" height="24" class="section section2"></rect><rect x="0" y="528" width="1346.5" height="24" class="section section2"></rect><rect x="0" y="552" width="1346.5" height="24" class="section section2"></rect><rect x="0" y="576" width="1346.5" height="24" class="section section2"></rect><rect x="0" y="600" width="1346.5" height="24" class="section section2"></rect><rect x="0" y="624" width="1346.5" height="24" class="section section2"></rect><rect x="0" y="648" width="1346.5" height="24" class="section section2"></rect><rect x="0" y="672" width="1346.5" height="24" class="section section3"></rect><rect x="0" y="696" width="1346.5" height="24" class="section section3"></rect><rect x="0" y="720" width="1346.5" height="24" class="section section3"></rect><rect x="0" y="744" width="1346.5" height="24" class="section section3"></rect><rect x="0" y="768" width="1346.5" height="24" class="section section3"></rect><rect x="0" y="792" width="1346.5" height="24" class="section section0"></rect><rect x="0" y="816" width="1346.5" height="24" class="section section0"></rect><rect x="0" y="840" width="1346.5" height="24" class="section section0"></rect><rect x="0" y="864" width="1346.5" height="24" class="section section0"></rect><rect x="0" y="888" width="1346.5" height="24" class="section section0"></rect><rect x="0" y="912" width="1346.5" height="24" class="section section0"></rect><rect x="0" y="936" width="1346.5" height="24" class="section section0"></rect><rect x="0" y="960" width="1346.5" height="24" class="section section0"></rect><rect x="0" y="984" width="1346.5" height="24" class="section section0"></rect><rect x="0" y="1008" width="1346.5" height="24" class="section section0"></rect><rect x="0" y="1032" width="1346.5" height="24" class="section section0"></rect><rect x="0" y="1056" width="1346.5" height="24" class="section section0"></rect><rect x="0" y="1080" width="1346.5" height="24" class="section section0"></rect></g><g><rect rx="3" ry="3" x="321" y="50" width="248" height="20" class="task  active0"></rect><rect rx="3" ry="3" x="321" y="74" width="497" height="20" class="task  task0"></rect><rect rx="3" ry="3" x="321" y="98" width="248" height="20" class="task  active0"></rect><rect rx="3" ry="3" x="321" y="122" width="248" height="20" class="task  task0"></rect><rect rx="3" ry="3" x="569" y="146" width="249" height="20" class="task  task0"></rect><rect rx="3" ry="3" x="321" y="170" width="497" height="20" class="task  task0"></rect><rect rx="3" ry="3" x="569" y="194" width="494" height="20" class="task  task0"></rect><rect rx="3" ry="3" x="321" y="218" width="248" height="20" class="task  active1"></rect><rect rx="3" ry="3" x="321" y="242" width="248" height="20" class="task  done1"></rect><rect rx="3" ry="3" x="321" y="266" width="497" height="20" class="task  task1"></rect><rect rx="3" ry="3" x="321" y="290" width="497" height="20" class="task  active1"></rect><rect rx="3" ry="3" x="321" y="314" width="742" height="20" class="task  active1"></rect><rect rx="3" ry="3" x="569" y="338" width="494" height="20" class="task  task1"></rect><rect rx="3" ry="3" x="321" y="362" width="248" height="20" class="task  done2"></rect><rect rx="3" ry="3" x="321" y="386" width="248" height="20" class="task  done2"></rect><rect rx="3" ry="3" x="321" y="410" width="248" height="20" class="task  active2"></rect><rect rx="3" ry="3" x="321" y="434" width="248" height="20" class="task  active2"></rect><rect rx="3" ry="3" x="569" y="458" width="494" height="20" class="task  task2"></rect><rect rx="3" ry="3" x="569" y="482" width="494" height="20" class="task  task2"></rect><rect rx="3" ry="3" x="569" y="506" width="494" height="20" class="task  task2"></rect><rect rx="3" ry="3" x="569" y="530" width="494" height="20" class="task  task2"></rect><rect rx="3" ry="3" x="569" y="554" width="494" height="20" class="task  task2"></rect><rect rx="3" ry="3" x="569" y="578" width="249" height="20" class="task  task2"></rect><rect rx="3" ry="3" x="818" y="602" width="245" height="20" class="task  task2"></rect><rect rx="3" ry="3" x="818" y="626" width="245" height="20" class="task  task2"></rect><rect rx="3" ry="3" x="569" y="650" width="249" height="20" class="task  active2"></rect><rect rx="3" ry="3" x="513" y="674" width="305" height="20" class="task  task3"></rect><rect rx="3" ry="3" x="569" y="698" width="494" height="20" class="task  task3"></rect><rect rx="3" ry="3" x="321" y="722" width="497" height="20" class="task  active3"></rect><rect rx="3" ry="3" x="513" y="746" width="550" height="20" class="task  task3"></rect><rect rx="3" ry="3" x="569" y="770" width="494" height="20" class="task  task3"></rect><rect rx="3" ry="3" x="75" y="794" width="246" height="20" class="task  done0"></rect><rect rx="3" ry="3" x="321" y="818" width="497" height="20" class="task  done0"></rect><rect rx="3" ry="3" x="321" y="842" width="497" height="20" class="task  done0"></rect><rect rx="3" ry="3" x="321" y="866" width="497" height="20" class="task  done0"></rect><rect rx="3" ry="3" x="321" y="890" width="497" height="20" class="task  active0"></rect><rect rx="3" ry="3" x="321" y="914" width="497" height="20" class="task  active0"></rect><rect rx="3" ry="3" x="321" y="938" width="497" height="20" class="task  done0"></rect><rect rx="3" ry="3" x="569" y="962" width="740" height="20" class="task  crit0"></rect><rect rx="3" ry="3" x="569" y="986" width="494" height="20" class="task  task0"></rect><rect rx="3" ry="3" x="569" y="1010" width="494" height="20" class="task  task0"></rect><rect rx="3" ry="3" x="569" y="1034" width="740" height="20" class="task  crit0"></rect><rect rx="3" ry="3" x="818" y="1058" width="491" height="20" class="task  crit0"></rect><rect rx="3" ry="3" x="818" y="1082" width="491" height="20" class="task  crit0"></rect><text font-size="11" x="445" y="63.5" text-height="20" class="taskText taskText0 activeText0">Add docstrings to all functions and classes </text><text font-size="11" x="569.5" y="87.5" text-height="20" class="taskText taskText0 ">Greatly revise and expand examples          </text><text font-size="11" x="445" y="111.5" text-height="20" class="taskText taskText0 activeText0">Move to scikit-hep GitHub org               </text><text font-size="11" x="445" y="135.5" text-height="20" class="taskText taskText0 ">Develop a release schedule/criteria         </text><text font-size="11" x="693.5" y="159.5" text-height="20" class="taskText taskText0 ">Automate deployment with Azure pipelines    </text><text font-size="11" x="569.5" y="183.5" text-height="20" class="taskText taskText0 ">Finalize logo and add it to website         </text><text font-size="11" x="816" y="207.5" text-height="20" class="taskText taskText0 ">Write submission to JOSS and pyOpenSci      </text><text font-size="11" x="445" y="231.5" text-height="20" class="taskText taskText1 activeText1">Add tests using HEPData published likelihoods           </text><text font-size="11" x="445" y="255.5" text-height="20" class="taskText taskText1  doneText1">Add CI with GitHub Actions                              </text><text font-size="11" x="569.5" y="279.5" text-height="20" class="taskText taskText1 ">Rewrite pytest fixtures to use modern pytest            </text><text font-size="11" x="569.5" y="303.5" text-height="20" class="taskText taskText1 activeText1">Factorize out the statistical fitting portion           </text><text font-size="11" x="692" y="327.5" text-height="20" class="taskText taskText1 activeText1">Scrutinize edge cases/squash bugs                       </text><text font-size="11" x="816" y="351.5" text-height="20" class="taskText taskText1 ">Reproduce sbottom serialization PUB note across backends</text><text font-size="11" x="445" y="375.5" text-height="20" class="taskText taskText2  doneText2">Add batch support                           </text><text font-size="11" x="445" y="399.5" text-height="20" class="taskText taskText2  doneText2">Add ParamViewer support                     </text><text font-size="11" x="445" y="423.5" text-height="20" class="taskText taskText2 activeText2">Implement pdf as subclass of distributions  </text><text font-size="11" x="445" y="447.5" text-height="20" class="taskText taskText2 activeText2">Finalize toy sampling                       </text><text font-size="11" x="816" y="471.5" text-height="20" class="taskText taskText2 ">Make general modeling choices               </text><text font-size="11" x="816" y="495.5" text-height="20" class="taskText taskText2 ">Add "discovery" test stats public API       </text><text font-size="11" x="816" y="519.5" text-height="20" class="taskText taskText2 ">Add better Model creation                   </text><text font-size="11" x="816" y="543.5" text-height="20" class="taskText taskText2 ">Add background model support                </text><text font-size="11" x="816" y="567.5" text-height="20" class="taskText taskText2 ">Develop interface for the optimizers        </text><text font-size="11" x="693.5" y="591.5" text-height="20" class="taskText taskText2 ">Migrate to TensorFlow 2.0                   </text><text font-size="11" x="940.5" y="615.5" text-height="20" class="taskText taskText2 ">Finalize public API*                        </text><text font-size="11" x="940.5" y="639.5" text-height="20" class="taskText taskText2 ">Integrate Statisfactory API*                </text><text font-size="11" x="693.5" y="663.5" text-height="20" class="taskText taskText2 activeText2">Drop Python 2.7 support                     </text><text font-size="11" x="665.5" y="687.5" text-height="20" class="taskText taskText3 ">Statisfactory integrations*            </text><text font-size="11" x="816" y="711.5" text-height="20" class="taskText taskText3 ">Hardware acceleration scaling studies*^   </text><text font-size="11" x="569.5" y="735.5" text-height="20" class="taskText taskText3 activeText3">Speedup through Numba                   </text><text font-size="11" x="788" y="759.5" text-height="20" class="taskText taskText3 ">Add Dask backend</text><text font-size="11" x="816" y="783.5" text-height="20" class="taskText taskText3 ">Prototype use of pyhf as AS end fit tool**,***</text><text font-size="11" x="198" y="807.5" text-height="20" class="taskText taskText0  doneText0">Organize topical meetings                                   </text><text font-size="11" x="569.5" y="831.5" text-height="20" class="taskText taskText0  doneText0">List public repos on website                                </text><text font-size="11" x="569.5" y="855.5" text-height="20" class="taskText taskText0  doneText0">Collect and curate existing example analysis use cases      </text><text font-size="11" x="569.5" y="879.5" text-height="20" class="taskText taskText0  doneText0">Survey of AS efforts in the field for topical workshop      </text><text font-size="11" x="569.5" y="903.5" text-height="20" class="taskText taskText0 activeText0">Blueprint workshop for evaluating AS                        </text><text font-size="11" x="569.5" y="927.5" text-height="20" class="taskText taskText0 activeText0">Develop initial specifications for user-facing interface    </text><text font-size="11" x="569.5" y="951.5" text-height="20" class="taskText taskText0  doneText0">Prototype awkward-array analyses in SciPy ecosystem         </text><text font-size="11" x="939" y="975.5" text-height="20" class="taskText taskText0  critText0">Initial roadmap for ecosystem coherency*                    </text><text font-size="11" x="816" y="999.5" text-height="20" class="taskText taskText0 ">Initial interface of AS-IDDS query system                   </text><text font-size="11" x="816" y="1023.5" text-height="20" class="taskText taskText0 ">Translate analysis examples into new specifications         </text><text font-size="11" x="939" y="1047.5" text-height="20" class="taskText taskText0  critText0">Initial roadmap for high-level cyberinfrastructure**        </text><text font-size="11" x="1063.5" y="1071.5" text-height="20" class="taskText taskText0  critText0">Benchmarking and assessment of existing AS***               </text><text font-size="11" x="1063.5" y="1095.5" text-height="20" class="taskText taskText0  critText0">Accelerator implementations of statistical components*^    </text></g><g><text x="10" y="134" class="sectionTitle sectionTitle0">Documentation and Deployment</text><text x="10" y="290" class="sectionTitle sectionTitle1">Revision and Maintenance</text><text x="10" y="518" class="sectionTitle sectionTitle2">Development</text><text x="10" y="734" class="sectionTitle sectionTitle3">Research</text><text x="10" y="950" class="sectionTitle sectionTitle0">Analysis Systems</text></g><g class="today"><line x1="513" x2="513" y1="25" y2="1131" class="today"></line></g><text x="692" y="25" class="titleText">pyhf 2019 into 2020 Roadmap</text></svg>